inDegrees=no
num_controls=7
num_derivatives=13
num_iterations=102
num_multipliers=7
num_parameters=0
num_slacks=7
num_states=26
objective=0.450070
objective_accelerations=0.053788
objective_balance=0.001185
objective_effort=0.040996
objective_height=0.348480
objective_ligament=0.005621
solver_duration=1198.821781
status=Solve_Succeeded
success=true
DataType=double
version=3
OpenSimVersion=4.5
endheader
time	/jointset/ground_pelvis/pelvis_tilt/value	/jointset/ground_pelvis/pelvis_tx/value	/jointset/ground_pelvis/pelvis_ty/value	/jointset/hip_r/hip_flexion_r/value	/jointset/hip_r/hip_adduction_r/value	/jointset/hip_r/hip_rotation_r/value	/jointset/back/lumbar_extension/value	/jointset/patellofemoral_r/patellar_flexion_r/value	/jointset/knee_r/knee_flexion_r/value	/jointset/knee_r/knee_adduction_r/value	/jointset/knee_r/knee_rotation_r/value	/jointset/ankle_r/ankle_angle_r/value	/jointset/subtalar_r/subtalar_angle_r/value	/jointset/ground_pelvis/pelvis_tilt/speed	/jointset/ground_pelvis/pelvis_tx/speed	/jointset/ground_pelvis/pelvis_ty/speed	/jointset/hip_r/hip_flexion_r/speed	/jointset/hip_r/hip_adduction_r/speed	/jointset/hip_r/hip_rotation_r/speed	/jointset/back/lumbar_extension/speed	/jointset/patellofemoral_r/patellar_flexion_r/speed	/jointset/knee_r/knee_flexion_r/speed	/jointset/knee_r/knee_adduction_r/speed	/jointset/knee_r/knee_rotation_r/speed	/jointset/ankle_r/ankle_angle_r/speed	/jointset/subtalar_r/subtalar_angle_r/speed	/forceset/tau_hip_flexion_r	/forceset/tau_hip_adduction_r	/forceset/tau_hip_rotation_r	/forceset/tau_knee_flexion_r	/forceset/tau_ankle_angle_r	/forceset/tau_subtalar_angle_r	/forceset/tau_lumbar_extension	lambda_cid13_p0	lambda_cid14_p0	lambda_cid14_p1	lambda_cid14_p2	lambda_cid14_p3	lambda_cid14_p4	lambda_cid14_p5	/jointset/ground_pelvis/pelvis_tilt/accel	/jointset/ground_pelvis/pelvis_tx/accel	/jointset/ground_pelvis/pelvis_ty/accel	/jointset/hip_r/hip_flexion_r/accel	/jointset/hip_r/hip_adduction_r/accel	/jointset/hip_r/hip_rotation_r/accel	/jointset/back/lumbar_extension/accel	/jointset/patellofemoral_r/patellar_flexion_r/accel	/jointset/knee_r/knee_flexion_r/accel	/jointset/knee_r/knee_adduction_r/accel	/jointset/knee_r/knee_rotation_r/accel	/jointset/ankle_r/ankle_angle_r/accel	/jointset/subtalar_r/subtalar_angle_r/accel	gamma_cid13_p0	gamma_cid14_p0	gamma_cid14_p1	gamma_cid14_p2	gamma_cid14_p3	gamma_cid14_p4	gamma_cid14_p5
1	-0.2458926194534239	-0.02570850656506121	0.5904041290836896	1.55724034533002	-0.2420084852080666	-0.05702020603643974	-0.7853622105338703	1.626757485326143	1.626757485326154	-0.1745113788232812	0.1744684282528677	0.4362657729864217	0.168063413387989	0.06665973480412002	0.003144508619292601	0.01710725599615469	-0.1000365293236345	0.0007143596476877502	0.0001084246251952034	5.450533363704491e-05	-0.02278834202823344	-0.0227883420282314	0.005559787983118684	-0.003418060090152567	0.01037286492216388	0.0065517954491723	-0.3449875974496887	0.022319157228446	0.006602139784171181	-0.5017585558137476	0.009644932674628934	0.002169083811281793	0.3664282364373035	-0.03959901317671072	-49.87593624920692	-12.27258383199545	7.497700460186637	6.793791944973813	-783.7830594127045	70.38683295207534	1.387781372960546	0.1329905920443511	2.129598927650645	-6.317676834619578	0.3069490924029194	-0.634981006830217	-0.3462612388552724	-5.512408353086567	-5.51240835308655	0.7001081751118416	-0.2436967455173904	-0.7353252277086392	0.2257754683755461	6.600878668788388e-09	1.163663891094085e-08	4.849243473438504e-08	4.766035364494883e-08	-9.045021101303654e-09	-1.263911501023932e-08	9.865281352572218e-08
1.01	-0.2451615421880117	-0.02567066751461691	0.5906810118597369	1.555930107774784	-0.24198582375507	-0.05705205086430518	-0.7853739709970189	1.626253808999244	1.626253808999216	-0.174422093971573	0.1744220371947786	0.4363315118338817	0.1681399556471956	0.07912284291114173	0.004401026221229867	0.03821296840463521	-0.1614851107134571	0.003820129604910173	-0.006851472499892902	-0.00197205530413894	-0.07799960202709551	-0.07799960202709484	0.01193095815535549	-0.005812470591308398	0.002650043432883629	0.008706840300256881	-0.3436982140561412	0.0222967635137974	0.006661135161318175	-0.5025754757064368	0.01064888399150423	0.002060782103911275	0.3657441612954234	-0.03965434712324678	-49.55144509237726	-12.2896353279167	7.531067896950924	6.746454283970986	-783.4851736824784	70.45378104848496	1.110652141253318	0.1186308772627027	2.092602872367567	-5.979560078921127	0.3127469989344647	-0.782589203627306	-0.06567214076932196	-5.533392818347936	-5.533392818347969	0.5506760849688047	-0.2301015100414728	-0.8094866890857517	0.2029467182196126	3.072363447391368e-08	5.518657946200423e-08	1.581336351864256e-07	2.166819936114851e-07	-5.047652613342685e-08	-2.439952436946549e-08	4.282891711787253e-07
1.02	-0.2443188185192178	-0.02562093358155376	0.5911672608548535	1.554021162148054	-0.241932033392197	-0.05716471369103861	-0.7853929607954736	1.625196438473343	1.625196438473324	-0.1742800864888204	0.1743531443701988	0.4363162772500535	0.1682365638998633	0.08898901548537759	0.005523485143064644	0.05898049980992686	-0.2197781436135545	0.006940141624204862	-0.01605517515615159	-0.001391362523147913	-0.1335271818284502	-0.1335271818284512	0.01610431419515096	-0.007918413397547674	-0.00582182123832936	0.01056499414113684	-0.3424088306627457	0.02227436979925988	0.006720130538710753	-0.5033923955991153	0.01165283530843375	0.001952480396772021	0.3650600861533953	-0.03971885221878592	-49.23410003984533	-12.3067081354764	7.563033401165287	6.704884651485322	-783.2905541427743	70.54062324972223	0.8683942664036214	0.1061788560235883	2.061962727012831	-5.686567136674325	0.3097975048174778	-1.083742113064343	0.175189444896806	-5.575672313585196	-5.575672313585239	0.2605453486234887	-0.186003206534177	-0.8851338640957248	0.1663972663345468	8.432359147832962e-09	2.353892639439981e-08	9.233736421164244e-08	7.087814129454424e-08	-2.948903558645947e-08	-1.719868138655966e-08	1.657764603160038e-07
1.03	-0.2433853237654398	-0.02556024872986887	0.5918600013627321	1.5515392484007	-0.2418480767025493	-0.05737079543736272	-0.7853968959367482	1.623583456068316	1.623583456068316	-0.1740961114649491	0.1742664369624621	0.4362136479726761	0.1683484693718053	0.0977767446529557	0.006630151201821119	0.079560974658155	-0.276650219120674	0.009751173357179302	-0.02457029000910472	0.0006708259418408363	-0.1889990774468448	-0.1889990774468466	0.02141733056133877	-0.009218243786998037	-0.01472163106589038	0.01160287641898862	-0.3431445152372701	0.02223297983607558	0.006905110480709494	-0.5024618214428254	0.01055820512101063	0.002074974208579108	0.3659130050535966	-0.03973693755830877	-49.58471714379979	-12.28518117368032	7.525655998800715	6.856387867934783	-783.4548195844804	70.51987588593784	0.8939811027830109	0.1154089402757196	2.055093881527966	-5.694372391361707	0.2517429479129185	-0.6467813343323471	0.2317073100339664	-5.522411921871142	-5.522411921870925	0.7756917381334494	-0.07126772985561877	-0.8950462872347661	0.04049395021249825	-1.433252874081135e-08	-8.876049057069002e-09	2.475091495699279e-08	-7.813821604569915e-08	-7.864616513174482e-09	-9.804356236897274e-09	-1.02778587980555e-07
1.04	-0.2423619479478339	-0.02548799752570053	0.5927583474226538	1.548487244971642	-0.2417390123074771	-0.05764430536484867	-0.7853782144415298	1.621417861959925	1.621417861959925	-0.173837203886009	0.1741728722958455	0.4360214922479712	0.1684643557148677	0.1069652282544885	0.007836755639754474	0.1001016102184259	-0.3337960799729739	0.0119616827051991	-0.02954081137893907	0.003131964916186034	-0.2440495225014328	-0.2440495225014362	0.0310908252282149	-0.009289865164660549	-0.0237271106994007	0.01136116836492049	-0.343880199811293	0.02219158987285435	0.007090090423452583	-0.5015312472864805	0.009463574933475685	0.00219746802024587	0.3667659239542534	-0.03976412468391335	-49.94219215407389	-12.26173136515991	7.484403799878412	7.01455587207828	-783.7243989374089	70.52600837359545	0.9485451531944568	0.1261665318590209	2.053994869421389	-5.741324205710501	0.1896930278265492	-0.3748234164405854	0.2549795467684777	-5.491382200823868	-5.491382200824043	1.132641008761133	0.05963859582334848	-0.9062678252854575	-0.08952080004936526	2.645946156692252e-08	3.63173928931296e-08	1.665089159630443e-07	1.846901211350491e-07	-1.833489979436186e-08	-4.307813152828204e-08	3.819731839537138e-07
